<svg width="15" height="15" viewBox="0 0 15 15" fill="none" xmlns="http://www.w3.org/2000/svg">
<path d="M15 0.978261V4.8913C15 5.15076 14.8969 5.39958 14.7135 5.58304C14.53 5.7665 14.2812 5.86957 14.0217 5.86957C13.7623 5.86957 13.5135 5.7665 13.33 5.58304C13.1465 5.39958 13.0435 5.15076 13.0435 4.8913V3.34239L10.1486 6.23804C9.96486 6.42182 9.71561 6.52507 9.45571 6.52507C9.19581 6.52507 8.94655 6.42182 8.76277 6.23804C8.57899 6.05427 8.47575 5.80501 8.47575 5.54511C8.47575 5.28521 8.57899 5.03595 8.76277 4.85217L11.6576 1.95652H10.1087C9.84925 1.95652 9.60042 1.85346 9.41696 1.67C9.2335 1.48654 9.13043 1.23771 9.13043 0.978261C9.13043 0.71881 9.2335 0.469985 9.41696 0.286526C9.60042 0.103066 9.84925 0 10.1087 0H14.0217C14.2812 0 14.53 0.103066 14.7135 0.286526C14.8969 0.469985 15 0.71881 15 0.978261ZM4.85136 8.7644L1.95652 11.6576V10.1087C1.95652 9.84925 1.85346 9.60042 1.67 9.41696C1.48654 9.2335 1.23771 9.13043 0.978261 9.13043C0.71881 9.13043 0.469985 9.2335 0.286526 9.41696C0.103066 9.60042 0 9.84925 0 10.1087V14.0217C0 14.2812 0.103066 14.53 0.286526 14.7135C0.469985 14.8969 0.71881 15 0.978261 15H4.8913C5.15076 15 5.39958 14.8969 5.58304 14.7135C5.7665 14.53 5.86957 14.2812 5.86957 14.0217C5.86957 13.7623 5.7665 13.5135 5.58304 13.33C5.39958 13.1465 5.15076 13.0435 4.8913 13.0435H3.34239L6.23804 10.1486C6.42182 9.96486 6.52507 9.71561 6.52507 9.45571C6.52507 9.19581 6.42182 8.94655 6.23804 8.76277C6.05427 8.57899 5.80501 8.47575 5.54511 8.47575C5.28521 8.47575 5.03595 8.57899 4.85217 8.76277L4.85136 8.7644ZM14.0217 9.13043C13.7623 9.13043 13.5135 9.2335 13.33 9.41696C13.1465 9.60042 13.0435 9.84925 13.0435 10.1087V11.6576L10.1486 8.76196C9.96486 8.57818 9.71561 8.47493 9.45571 8.47493C9.19581 8.47493 8.94655 8.57818 8.76277 8.76196C8.57899 8.94573 8.47575 9.19499 8.47575 9.45489C8.47575 9.71479 8.57899 9.96405 8.76277 10.1478L11.6576 13.0435H10.1087C9.84925 13.0435 9.60042 13.1465 9.41696 13.33C9.2335 13.5135 9.13043 13.7623 9.13043 14.0217C9.13043 14.2812 9.2335 14.53 9.41696 14.7135C9.60042 14.8969 9.84925 15 10.1087 15H14.0217C14.2812 15 14.53 14.8969 14.7135 14.7135C14.8969 14.53 15 14.2812 15 14.0217V10.1087C15 9.84925 14.8969 9.60042 14.7135 9.41696C14.53 9.2335 14.2812 9.13043 14.0217 9.13043ZM3.34239 1.95652H4.8913C5.15076 1.95652 5.39958 1.85346 5.58304 1.67C5.7665 1.48654 5.86957 1.23771 5.86957 0.978261C5.86957 0.71881 5.7665 0.469985 5.58304 0.286526C5.39958 0.103066 5.15076 0 4.8913 0H0.978261C0.71881 0 0.469985 0.103066 0.286526 0.286526C0.103066 0.469985 0 0.71881 0 0.978261V4.8913C0 5.15076 0.103066 5.39958 0.286526 5.58304C0.469985 5.7665 0.71881 5.86957 0.978261 5.86957C1.23771 5.86957 1.48654 5.7665 1.67 5.58304C1.85346 5.39958 1.95652 5.15076 1.95652 4.8913V3.34239L4.85136 6.23804C5.03514 6.42182 5.28439 6.52507 5.54429 6.52507C5.80419 6.52507 6.05345 6.42182 6.23723 6.23804C6.42101 6.05427 6.52425 5.80501 6.52425 5.54511C6.52425 5.28521 6.42101 5.03595 6.23723 4.85217L3.34239 1.95652Z" fill="white"/>
</svg>
