<svg width="16" height="17" viewBox="0 0 16 17" fill="none" xmlns="http://www.w3.org/2000/svg">
<path d="M2 2.5C2 1.94687 1.55313 1.5 1 1.5C0.446875 1.5 0 1.94687 0 2.5V13C0 14.3813 1.11875 15.5 2.5 15.5H15C15.5531 15.5 16 15.0531 16 14.5C16 13.9469 15.5531 13.5 15 13.5H2.5C2.225 13.5 2 13.275 2 13V2.5ZM14.7063 5.20625C15.0969 4.81563 15.0969 4.18125 14.7063 3.79063C14.3156 3.4 13.6812 3.4 13.2906 3.79063L10 7.08437L8.20625 5.29063C7.81563 4.9 7.18125 4.9 6.79063 5.29063L3.29063 8.79062C2.9 9.18125 2.9 9.81563 3.29063 10.2063C3.68125 10.5969 4.31563 10.5969 4.70625 10.2063L7.5 7.41563L9.29375 9.20938C9.68437 9.6 10.3188 9.6 10.7094 9.20938L14.7094 5.20937L14.7063 5.20625Z" fill="#CC0C20"/>
</svg>
