<svg width="13" height="16" viewBox="0 0 13 16" fill="none" xmlns="http://www.w3.org/2000/svg">
<path fill-rule="evenodd" clip-rule="evenodd" d="M1.625 2.10714V13.8929H11.375V2.10714H1.625ZM1.08333 0.5C0.796016 0.5 0.520465 0.612882 0.317301 0.813814C0.114137 1.01475 0 1.28727 0 1.57143V14.4286C0 14.7127 0.114137 14.9853 0.317301 15.1862C0.520465 15.3871 0.796016 15.5 1.08333 15.5H11.9167C12.204 15.5 12.4795 15.3871 12.6827 15.1862C12.8859 14.9853 13 14.7127 13 14.4286V1.57143C13 1.28727 12.8859 1.01475 12.6827 0.813814C12.4795 0.612882 12.204 0.5 11.9167 0.5H1.08333ZM6.5 11.2143C6.5 11.0012 6.5856 10.7968 6.73798 10.6461C6.89035 10.4954 7.09701 10.4107 7.3125 10.4107H9.20833C9.42382 10.4107 9.63048 10.4954 9.78286 10.6461C9.93523 10.7968 10.0208 11.0012 10.0208 11.2143C10.0208 11.4274 9.93523 11.6318 9.78286 11.7825C9.63048 11.9332 9.42382 12.0179 9.20833 12.0179H7.3125C7.09701 12.0179 6.89035 11.9332 6.73798 11.7825C6.5856 11.6318 6.5 11.4274 6.5 11.2143ZM4.33333 12.2857C4.62065 12.2857 4.8962 12.1728 5.09937 11.9719C5.30253 11.771 5.41667 11.4984 5.41667 11.2143C5.41667 10.9301 5.30253 10.6576 5.09937 10.4567C4.8962 10.2557 4.62065 10.1429 4.33333 10.1429C4.04602 10.1429 3.77047 10.2557 3.5673 10.4567C3.36414 10.6576 3.25 10.9301 3.25 11.2143C3.25 11.4984 3.36414 11.771 3.5673 11.9719C3.77047 12.1728 4.04602 12.2857 4.33333 12.2857ZM6.5 8C6.5 7.78688 6.5856 7.58249 6.73798 7.43179C6.89035 7.28109 7.09701 7.19643 7.3125 7.19643H9.20833C9.42382 7.19643 9.63048 7.28109 9.78286 7.43179C9.93523 7.58249 10.0208 7.78688 10.0208 8C10.0208 8.21312 9.93523 8.41751 9.78286 8.56821C9.63048 8.71891 9.42382 8.80357 9.20833 8.80357H7.3125C7.09701 8.80357 6.89035 8.71891 6.73798 8.56821C6.5856 8.41751 6.5 8.21312 6.5 8ZM4.33333 9.07143C4.62065 9.07143 4.8962 8.95855 5.09937 8.75761C5.30253 8.55668 5.41667 8.28416 5.41667 8C5.41667 7.71584 5.30253 7.44332 5.09937 7.24239C4.8962 7.04145 4.62065 6.92857 4.33333 6.92857C4.04602 6.92857 3.77047 7.04145 3.5673 7.24239C3.36414 7.44332 3.25 7.71584 3.25 8C3.25 8.28416 3.36414 8.55668 3.5673 8.75761C3.77047 8.95855 4.04602 9.07143 4.33333 9.07143ZM6.5 4.78571C6.5 4.57259 6.5856 4.3682 6.73798 4.2175C6.89035 4.0668 7.09701 3.98214 7.3125 3.98214H9.20833C9.42382 3.98214 9.63048 4.0668 9.78286 4.2175C9.93523 4.3682 10.0208 4.57259 10.0208 4.78571C10.0208 4.99883 9.93523 5.20323 9.78286 5.35393C9.63048 5.50462 9.42382 5.58929 9.20833 5.58929H7.3125C7.09701 5.58929 6.89035 5.50462 6.73798 5.35393C6.5856 5.20323 6.5 4.99883 6.5 4.78571ZM4.33333 5.85714C4.62065 5.85714 4.8962 5.74426 5.09937 5.54333C5.30253 5.3424 5.41667 5.06987 5.41667 4.78571C5.41667 4.50155 5.30253 4.22903 5.09937 4.0281C4.8962 3.82717 4.62065 3.71429 4.33333 3.71429C4.04602 3.71429 3.77047 3.82717 3.5673 4.0281C3.36414 4.22903 3.25 4.50155 3.25 4.78571C3.25 5.06987 3.36414 5.3424 3.5673 5.54333C3.77047 5.74426 4.04602 5.85714 4.33333 5.85714Z" fill="#CC0C20"/>
</svg>
