<svg width="15" height="17" viewBox="0 0 15 17" fill="none" xmlns="http://www.w3.org/2000/svg">
<path d="M13.3333 9.82167V6.83334C13.3333 4.1525 11.5125 1.89417 9.04583 1.215C8.80167 0.600005 8.205 0.166672 7.5 0.166672C6.795 0.166672 6.19833 0.600005 5.95417 1.215C3.4875 1.895 1.66667 4.1525 1.66667 6.83334V9.82167L0.244167 11.2442C0.0878755 11.4004 4.71978e-05 11.6123 0 11.8333V13.5C0 13.721 0.0877973 13.933 0.244078 14.0893C0.400358 14.2455 0.61232 14.3333 0.833333 14.3333H14.1667C14.3877 14.3333 14.5996 14.2455 14.7559 14.0893C14.9122 13.933 15 13.721 15 13.5V11.8333C15 11.6123 14.9121 11.4004 14.7558 11.2442L13.3333 9.82167ZM13.3333 12.6667H1.66667V12.1783L3.08917 10.7558C3.24546 10.5996 3.33329 10.3877 3.33333 10.1667V6.83334C3.33333 4.53584 5.2025 2.66667 7.5 2.66667C9.7975 2.66667 11.6667 4.53584 11.6667 6.83334V10.1667C11.6667 10.3883 11.7542 10.6 11.9108 10.7558L13.3333 12.1783V12.6667ZM7.5 16.8333C8.01608 16.834 8.51955 16.6738 8.94041 16.3751C9.36127 16.0764 9.67861 15.654 9.84833 15.1667H5.15167C5.32138 15.654 5.63873 16.0764 6.05959 16.3751C6.48045 16.6738 6.98392 16.834 7.5 16.8333Z" fill="#CC0C20"/>
</svg>
