<svg width="18" height="17" viewBox="0 0 18 17" fill="none" xmlns="http://www.w3.org/2000/svg">
<path d="M11.52 1.93366L17.551 11.8546C18.4177 13.2795 17.992 15.1542 16.5996 16.0413C16.1326 16.3408 15.5877 16.5001 15.0309 16.5H2.96821C1.3293 16.5 0 15.14 0 13.4609C0 12.8929 0.1557 12.3373 0.448201 11.8546L6.48002 1.93366C7.34582 0.508763 9.17643 0.0723152 10.5687 0.959433C10.9539 1.20477 11.2797 1.5381 11.52 1.93366ZM9.00003 12.9444C9.23872 12.9444 9.46764 12.8508 9.63642 12.6841C9.80521 12.5174 9.90003 12.2913 9.90003 12.0555C9.90003 11.8198 9.80521 11.5937 9.63642 11.427C9.46764 11.2603 9.23872 11.1666 9.00003 11.1666C8.76133 11.1666 8.53241 11.2603 8.36363 11.427C8.19485 11.5937 8.10002 11.8198 8.10002 12.0555C8.10002 12.2913 8.19485 12.5174 8.36363 12.6841C8.53241 12.8508 8.76133 12.9444 9.00003 12.9444ZM9.00003 4.94435C8.76133 4.94435 8.53241 5.038 8.36363 5.20471C8.19485 5.37141 8.10002 5.5975 8.10002 5.83325V9.38883C8.10002 9.62458 8.19485 9.85068 8.36363 10.0174C8.53241 10.1841 8.76133 10.2777 9.00003 10.2777C9.23872 10.2777 9.46764 10.1841 9.63642 10.0174C9.80521 9.85068 9.90003 9.62458 9.90003 9.38883V5.83325C9.90003 5.5975 9.80521 5.37141 9.63642 5.20471C9.46764 5.038 9.23872 4.94435 9.00003 4.94435Z" fill="#CC0C20"/>
</svg>
