<svg width="17" height="17" viewBox="0 0 17 17" fill="none" xmlns="http://www.w3.org/2000/svg">
<path d="M1.91566 2.36904C2.10802 2.47853 2.32569 2.53576 2.54703 2.53506C2.76836 2.53436 2.98567 2.47575 3.17733 2.36505C3.369 2.25434 3.52836 2.09541 3.63957 1.90404C3.75078 1.71267 3.80997 1.49552 3.81125 1.27419H5.08632C5.08752 1.49565 5.1467 1.71293 5.25795 1.90442C5.36921 2.09591 5.52866 2.25493 5.72046 2.36565C5.91225 2.47638 6.1297 2.53495 6.35116 2.53555C6.57262 2.53614 6.79038 2.47874 6.98277 2.36904L7.6203 3.4724C7.97477 3.27434 8.39894 3.14343 8.83076 3.06608C8.80469 2.98957 8.77069 2.91477 8.72876 2.84167L8.08357 1.72556C7.91674 1.43593 7.64218 1.22399 7.31974 1.13594C6.9973 1.04788 6.65313 1.09085 6.36224 1.25548C6.35932 0.921195 6.22436 0.601615 5.98678 0.366424C5.7492 0.131234 5.42827 -0.000490759 5.09397 -2.93093e-05H3.8053C3.10827 -2.93093e-05 2.54299 0.560999 2.53704 1.25633C2.24607 1.09144 1.90169 1.04832 1.57905 1.13638C1.25641 1.22445 0.981693 1.43655 0.814852 1.72641L0.170519 2.84167C-0.177999 3.4452 0.0260114 4.21534 0.624442 4.5681C0.33618 4.73765 0.126674 5.01433 0.0416352 5.33776C-0.0434038 5.6612 0.00292709 6.00514 0.170519 6.29454L0.814852 7.41065C1.16337 8.01418 1.93181 8.22244 2.53704 7.88072C2.54214 8.40605 2.86686 8.85572 3.32588 9.04358C3.32333 8.55821 3.44489 8.06603 3.70585 7.61551L3.76365 7.5152C3.70997 7.33101 3.61525 7.16138 3.48661 7.01904C3.35797 6.8767 3.19876 6.76536 3.02092 6.69338C2.84308 6.62139 2.65125 6.59063 2.45982 6.60341C2.26839 6.61619 2.08235 6.67218 1.91566 6.76716L1.27813 5.66296C2.11542 5.17333 2.11542 3.96287 1.27813 3.47325L1.91566 2.36904Z" fill="#CC0C20"/>
<path d="M4.44963 5.84319C4.78779 5.84319 5.11211 5.70885 5.35123 5.46973C5.59035 5.23061 5.72469 4.90629 5.72469 4.56813C5.72469 4.22996 5.59035 3.90564 5.35123 3.66652C5.11211 3.4274 4.78779 3.29306 4.44963 3.29306C4.11146 3.29306 3.78714 3.4274 3.54802 3.66652C3.3089 3.90564 3.17456 4.22996 3.17456 4.56813C3.17456 4.90629 3.3089 5.23061 3.54802 5.46973C3.78714 5.70885 4.11146 5.84319 4.44963 5.84319Z" fill="#CC0C20"/>
<path fill-rule="evenodd" clip-rule="evenodd" d="M8.19482 10.6256C8.19482 9.93462 8.46932 9.27194 8.95792 8.78333C9.44653 8.29473 10.1092 8.02023 10.8002 8.02023C11.4912 8.02023 12.1539 8.29473 12.6425 8.78333C13.1311 9.27194 13.4056 9.93462 13.4056 10.6256C13.4056 11.3166 13.1311 11.9793 12.6425 12.4679C12.1539 12.9565 11.4912 13.231 10.8002 13.231C10.1092 13.231 9.44653 12.9565 8.95792 12.4679C8.46932 11.9793 8.19482 11.3166 8.19482 10.6256ZM10.8011 9.29615C10.6264 9.29615 10.4534 9.33056 10.292 9.39741C10.1306 9.46427 9.98391 9.56226 9.86038 9.68579C9.73685 9.80932 9.63886 9.95597 9.572 10.1174C9.50515 10.2788 9.47074 10.4518 9.47074 10.6265C9.47074 10.8012 9.50515 10.9742 9.572 11.1356C9.63886 11.297 9.73685 11.4436 9.86038 11.5671C9.98391 11.6907 10.1306 11.7887 10.292 11.8555C10.4534 11.9224 10.6264 11.9568 10.8011 11.9568C11.1539 11.9568 11.4923 11.8166 11.7417 11.5671C11.9912 11.3177 12.1314 10.9793 12.1314 10.6265C12.1314 10.2736 11.9912 9.93527 11.7417 9.68579C11.4923 9.43631 11.1539 9.29615 10.8011 9.29615Z" fill="#CC0C20"/>
<path fill-rule="evenodd" clip-rule="evenodd" d="M4.80996 12.9997C4.70751 12.8224 4.641 12.6267 4.61422 12.4237C4.58744 12.2208 4.60092 12.0145 4.65389 11.8168C4.70686 11.619 4.79828 11.4336 4.92293 11.2712C5.04758 11.1088 5.20301 10.9726 5.38034 10.8703C5.42322 10.8454 5.45881 10.8097 5.48354 10.7667C5.50828 10.7238 5.5213 10.6751 5.5213 10.6255C5.5213 10.5759 5.50828 10.5272 5.48354 10.4842C5.45881 10.4413 5.42322 10.4056 5.38034 10.3807C5.02258 10.1739 4.76159 9.83352 4.65479 9.43436C4.54798 9.03519 4.6041 8.60995 4.81081 8.25216L5.75096 6.62348C5.95771 6.26595 6.29795 6.00513 6.69691 5.89833C7.09587 5.79154 7.52091 5.84751 7.87862 6.05395C7.92157 6.07895 7.97036 6.09216 8.02006 6.09225C8.06976 6.09234 8.1186 6.07931 8.16165 6.05446C8.20469 6.02962 8.24041 5.99385 8.2652 5.95077C8.28998 5.90769 8.30295 5.85884 8.30279 5.80914C8.30279 4.94889 8.99982 4.25101 9.86007 4.25101H11.7412C12.6023 4.25101 13.2993 4.94889 13.2993 5.80914C13.2993 6.02675 13.5348 6.16275 13.7227 6.05395C13.8997 5.95139 14.0952 5.88477 14.2981 5.85789C14.5009 5.83101 14.707 5.84441 14.9046 5.89731C15.1023 5.95021 15.2875 6.04159 15.4498 6.16619C15.6121 6.2908 15.7482 6.4462 15.8503 6.62348L16.7913 8.25386C16.8937 8.43086 16.9603 8.62632 16.9871 8.82905C17.0139 9.03179 17.0004 9.23782 16.9476 9.43536C16.8947 9.6329 16.8033 9.81807 16.6788 9.98027C16.5543 10.1425 16.399 10.2785 16.2218 10.3807C16.1787 10.4054 16.1429 10.441 16.118 10.484C16.0931 10.527 16.08 10.5758 16.08 10.6255C16.08 10.6752 16.0931 10.724 16.118 10.7669C16.1429 10.8099 16.1787 10.8456 16.2218 10.8703C16.5793 11.077 16.8401 11.4173 16.9469 11.8162C17.0537 12.2152 16.9978 12.6402 16.7913 12.998L15.852 14.6266C15.7497 14.8039 15.6135 14.9592 15.4512 15.0838C15.2888 15.2083 15.1036 15.2997 14.9059 15.3527C14.7083 15.4056 14.5021 15.4192 14.2992 15.3924C14.0964 15.3657 13.9007 15.2993 13.7235 15.197C13.6805 15.1721 13.6317 15.1589 13.5819 15.1588C13.5322 15.1588 13.4834 15.1718 13.4403 15.1966C13.3972 15.2214 13.3614 15.2572 13.3365 15.3002C13.3116 15.3433 13.2985 15.3921 13.2985 15.4418C13.2985 16.3029 12.6015 17 11.7412 17H9.86092C9.44782 17 9.05164 16.8359 8.75945 16.5439C8.46727 16.2519 8.30301 15.8558 8.30279 15.4427C8.30277 15.393 8.28966 15.3441 8.26477 15.3011C8.23988 15.258 8.20409 15.2223 8.16101 15.1975C8.11792 15.1727 8.06906 15.1596 8.01934 15.1597C7.96961 15.1598 7.92079 15.1729 7.87777 15.1979C7.51995 15.4042 7.09484 15.4601 6.69586 15.3531C6.29689 15.2462 5.95672 14.9852 5.75011 14.6275L4.80996 12.9997ZM6.01787 11.9745C5.98555 11.9931 5.95721 12.0179 5.93449 12.0474C5.91177 12.077 5.89511 12.1107 5.88547 12.1468C5.87584 12.1828 5.87341 12.2203 5.87834 12.2573C5.88326 12.2943 5.89544 12.3299 5.91417 12.3621L6.85431 13.99C6.93252 14.126 7.10508 14.1719 7.24108 14.0937C8.27899 13.4944 9.57785 14.2433 9.57785 15.4427C9.57785 15.5982 9.70451 15.7249 9.86092 15.7249H11.7412C11.8163 15.7249 11.8883 15.6951 11.9414 15.642C11.9945 15.5889 12.0243 15.5169 12.0243 15.4418C12.0243 14.2433 13.3223 13.4935 14.361 14.0928C14.4971 14.171 14.6696 14.1243 14.7478 13.9891L15.688 12.3604C15.7253 12.2955 15.7353 12.2184 15.7158 12.146C15.6964 12.0737 15.6491 12.012 15.5843 11.9745C14.5464 11.3752 14.5455 9.87659 15.5843 9.27646C15.6164 9.25806 15.6446 9.23346 15.6672 9.2041C15.6898 9.17473 15.7064 9.14118 15.716 9.10537C15.7255 9.06957 15.7279 9.03222 15.723 8.9955C15.718 8.95877 15.7058 8.92339 15.6871 8.89139L14.7461 7.26186C14.7278 7.22951 14.7032 7.20112 14.6738 7.17836C14.6444 7.15559 14.6108 7.1389 14.5749 7.12925C14.539 7.1196 14.5015 7.11719 14.4646 7.12215C14.4278 7.12711 14.3923 7.13935 14.3602 7.15816C13.3223 7.75829 12.0243 7.0077 12.0243 5.80914C12.0243 5.73406 11.9945 5.66206 11.9414 5.60898C11.8883 5.55589 11.8163 5.52607 11.7412 5.52607H9.86092C9.82372 5.52585 9.78685 5.53302 9.75245 5.54717C9.71806 5.56133 9.68682 5.58218 9.66055 5.60853C9.63429 5.63487 9.61353 5.66617 9.59948 5.70061C9.58543 5.73505 9.57836 5.77194 9.5787 5.80914C9.5787 7.0077 8.28069 7.75744 7.24193 7.1573C7.17698 7.12001 7.09988 7.10999 7.02755 7.12943C6.95521 7.14887 6.89353 7.19618 6.85601 7.26101L5.91587 8.88969C5.89727 8.9219 5.8852 8.95745 5.88035 8.99432C5.87549 9.03118 5.87795 9.06865 5.88758 9.10457C5.89721 9.14048 5.91383 9.17415 5.93648 9.20365C5.95912 9.23314 5.98736 9.25788 6.01957 9.27646C7.05833 9.87574 7.05663 11.3761 6.01957 11.9745" fill="#CC0C20"/>
</svg>
