<svg width="12" height="16" viewBox="0 0 12 16" fill="none" xmlns="http://www.w3.org/2000/svg">
<path d="M11.9891 6.78948C11.9717 6.92844 11.9159 7.05907 11.8286 7.16534L4.37666 15.7301C4.28218 15.8579 4.15085 15.9504 4.00216 15.994C3.93846 16.002 3.87477 16.002 3.81108 15.994C3.70294 15.9935 3.59613 15.9689 3.49772 15.922C3.34449 15.8467 3.22237 15.7161 3.15379 15.5542C3.08716 15.4101 3.06833 15.2469 3.10029 15.0903L3.75758 9.60441H0.983185C0.824601 9.5941 0.66917 9.55345 0.524607 9.48446C0.383108 9.40649 0.261859 9.29368 0.171316 9.15576C0.0807733 9.01783 0.0236543 8.85893 0.00488515 8.69276C-0.0111588 8.52409 0.0124556 8.35388 0.0736716 8.19695L2.96271 0.639799C3.03914 0.448671 3.16602 0.284733 3.32958 0.167977C3.49325 0.0566479 3.68465 -0.00176224 3.87987 4.05044e-05H9.41338C9.57311 0.0032393 9.7298 0.0440238 9.87195 0.119995C10.0156 0.203963 10.1387 0.322319 10.2312 0.463865C10.3168 0.607011 10.3687 0.767751 10.384 0.935687C10.3997 1.10249 10.3734 1.27067 10.3076 1.4235L8.48094 5.87782H11.2706C11.4092 5.88268 11.544 5.92691 11.6604 6.00577C11.7832 6.09161 11.8795 6.21282 11.9378 6.35473C11.9962 6.49665 12.014 6.6532 11.9891 6.80547V6.78948Z" fill="#9DA0CE"/>
</svg>
