<svg width="11" height="13" viewBox="0 0 11 13" fill="none" xmlns="http://www.w3.org/2000/svg">
<path d="M3.16121 0.136617C3.04534 0.0502218 2.90503 0.00244204 2.76028 9.11105e-05C2.61552 -0.00225982 2.47372 0.0409381 2.35508 0.123525C2.23645 0.206112 2.14704 0.323872 2.0996 0.460013C2.05217 0.596154 2.04913 0.743726 2.09093 0.881686C2.21108 1.28069 2.22459 1.70399 2.13011 2.10978C2.03595 2.51317 1.83681 2.88481 1.5527 3.18736C1.53376 3.20771 1.51608 3.22919 1.49977 3.25167C1.09008 3.81065 -1.22233 7.08307 0.852924 10.6148L0.873546 10.6483C1.37766 11.4029 2.06811 12.0159 2.87869 12.4285C3.67949 12.8367 4.57261 13.032 5.47155 12.9957C6.4274 13.0124 7.37131 12.7826 8.21152 12.3287C9.06633 11.866 9.78625 11.1909 10.3012 10.3692C11.1955 8.86398 11.1151 7.25206 10.7054 5.96238C10.3046 4.69803 9.55057 3.6266 8.91335 3.15589C8.81324 3.0821 8.69485 3.03678 8.57086 3.02478C8.44687 3.01277 8.32193 3.03452 8.2094 3.08771C8.09687 3.1409 8.00098 3.22353 7.93198 3.32676C7.86297 3.43 7.82345 3.54995 7.81764 3.67381C7.77158 4.65287 7.56811 5.41915 7.27185 6.02122C7.11924 4.37441 6.49715 3.15042 5.74307 2.24183C4.95463 1.29082 3.98058 0.668223 3.45885 0.334345C3.35799 0.271745 3.25896 0.206264 3.16189 0.137986L3.16121 0.136617Z" fill="#F4A954"/>
</svg>
