<svg width="130" height="29" viewBox="0 0 130 29" fill="none" xmlns="http://www.w3.org/2000/svg">
    <path d="M53.6143 1.10646C54.5642 0.726481 55.9756 0.292217 56.7627 0.156509H56.7355C57.5226 0.0208014 58.9611 -0.0334816 59.9382 0.0208014C60.9153 0.102226 62.1367 0.292217 62.6524 0.427924C63.1681 0.590773 64.0637 0.916472 65.6651 1.62215L65.6379 4.11917C65.6379 5.61196 65.5294 6.64333 65.3665 6.64333C65.2037 6.64333 64.7694 6.4262 64.3352 6.15479C63.928 5.88337 63.0595 5.42196 62.381 5.15055C61.5939 4.85199 60.3725 4.662 58.9883 4.662C57.0884 4.63486 56.5998 4.71629 55.0527 5.47625C53.8585 6.04622 52.8271 6.83332 51.8501 7.91898C50.9544 8.89608 50.1944 10.0632 49.8416 10.986C49.4073 12.1802 49.3259 12.9673 49.4073 14.7858C49.4887 16.6586 49.6516 17.3642 50.2758 18.5856C50.683 19.3998 51.5515 20.5941 52.1486 21.2183C52.7729 21.8697 53.8857 22.684 54.6456 23.064C55.3784 23.4439 56.6812 23.8511 57.4955 24.0139C58.3912 24.1496 59.5854 24.1496 60.4811 24.0139C61.2953 23.8782 62.2181 23.6882 62.5167 23.5796C62.8152 23.4711 63.6566 23.0097 64.4166 22.5483C65.1494 22.0869 66.1808 21.164 66.7236 20.4855C67.4836 19.5356 68.1078 18.0428 69.5463 13.7001C70.5777 10.6331 71.6362 7.62043 71.9348 6.96903C72.3148 6.1005 72.6947 5.69338 73.5633 5.28626C74.2689 4.96056 75.3275 4.74343 76.2231 4.74343C77.2545 4.74343 78.0959 4.93342 78.9373 5.34054C79.9958 5.88337 80.2401 6.18193 80.8101 7.59329C81.1629 8.48896 82.52 12.533 83.8228 16.55C85.1256 20.5669 86.1027 23.9596 86.0212 24.0682C85.9398 24.2039 83.6599 24.2582 76.0874 24.1496L75.9517 19.9427H77.9873C79.1544 19.9427 80.0229 19.8341 80.0229 19.6713C80.0229 19.5356 79.2358 17.12 78.2588 14.2972C77.2817 11.5017 76.4131 9.16749 76.3317 9.08607C76.2231 9.00465 76.0874 9.05893 76.0331 9.22178C75.9517 9.35748 74.7846 12.7773 73.4276 16.8214C71.012 23.9053 70.9034 24.1225 70.1163 24.3396C69.682 24.4753 68.6778 25.0453 67.945 25.6153C67.185 26.1852 66.0993 26.9181 65.5022 27.2166C64.9051 27.5152 63.6838 27.9766 62.7881 28.2208C61.7567 28.5465 60.3182 28.7094 58.8526 28.6823C57.3326 28.6823 55.9484 28.4923 54.7813 28.1123C53.8042 27.8137 52.2843 27.108 51.3886 26.5109C50.493 25.941 49.1359 24.801 48.4031 23.9596C47.6431 23.1182 46.7203 21.7883 46.3132 21.0012C45.9061 20.187 45.3904 18.8027 45.1732 17.9071C44.929 17.0114 44.739 15.41 44.739 14.3787C44.739 13.3473 44.929 11.7731 45.1461 10.9046C45.3632 10.0632 45.9061 8.65181 46.3403 7.81042C46.7746 6.94189 47.616 5.69338 48.1859 5.01484C48.7831 4.3363 49.8687 3.33207 50.6015 2.78924C51.3344 2.24641 52.6914 1.48644 53.6143 1.10646Z" fill="black"/>
    <path d="M22.4829 6.64333C22.7815 6.07336 23.46 5.44911 24.1657 5.06913C25.0342 4.63486 25.7942 4.47201 27.1241 4.47201C28.2641 4.47201 29.214 4.63486 29.8383 4.96056C30.4082 5.23197 31.0325 5.85623 31.3582 6.50763C31.6839 7.10474 32.6881 10.036 33.5838 13.0216C34.4795 16.0072 35.348 18.7756 35.5109 19.1827C35.7008 19.6713 35.9994 19.9427 36.3522 19.9427C36.6508 19.9427 36.9494 19.7527 37.0308 19.5356C37.1122 19.3184 37.1665 15.8172 37.1665 4.47201L41.3734 4.60772V13.0759C41.3734 21.1098 41.3463 21.5712 40.8306 22.2768C40.532 22.6568 39.9349 23.2539 39.5278 23.5796C38.9578 23.9868 38.2521 24.1768 36.9494 24.2582C35.5109 24.3396 34.8866 24.231 33.9638 23.7696C33.3395 23.4711 32.5253 22.7925 32.1724 22.304C31.7653 21.7883 30.7882 19.047 29.6754 15.4643C28.6712 12.1802 27.6941 9.3032 27.5041 9.08607C27.287 8.8418 26.9884 8.76037 26.717 8.86894C26.3642 9.05893 26.3099 10.1446 26.1742 24.1496L21.9672 24.2853V15.9257C21.9672 8.29897 21.9944 7.51186 22.4829 6.64333Z" fill="black"/>
    <path d="M1.47538 6.67048C1.82822 6.15479 2.58819 5.55767 3.26672 5.25912C4.32524 4.79771 5.24806 4.74343 18.7103 4.74343V8.81465H12.3863C7.22939 8.81465 5.98088 8.89608 5.46519 9.22178C5.03092 9.52033 4.86807 9.90032 4.86807 10.5789C4.86807 11.2574 5.03092 11.6374 5.46519 11.9359C5.95373 12.2616 6.95797 12.3431 13.8248 12.3431V16.6857H9.67212C6.7137 16.6857 5.43805 16.7943 5.19377 17.0114C5.00378 17.2014 4.86807 17.7171 4.86807 18.1785C4.86807 18.6127 5.08521 19.2099 5.35662 19.4813C5.76374 19.9155 6.44228 19.9698 18.7103 19.9427L18.5745 24.1496H11.382C5.24805 24.1496 4.08097 24.0953 3.37529 23.7154C2.91388 23.4711 2.15392 22.8197 1.66537 22.2768C1.20397 21.734 0.661137 20.7841 0.498288 20.1327C0.335439 19.5084 0.254014 18.3142 0.335439 17.4999C0.389722 16.6857 0.633996 15.6272 0.878269 15.1929C1.25825 14.4601 1.25825 14.2972 0.878269 13.5644C0.633996 13.103 0.389722 12.0716 0.308297 11.2574C0.226873 10.416 0.335439 9.3032 0.52543 8.67895C0.71542 8.08183 1.14968 7.18616 1.47538 6.67048Z" fill="black"/>
    <path d="M86.2926 8.81465V6.77904V4.74343H94.7879C102.36 4.74343 103.365 4.79771 104.342 5.25912C104.939 5.50339 105.753 6.12764 106.187 6.58905C106.595 7.0776 107.029 7.91898 107.192 8.46182C107.327 9.03179 107.463 10.0903 107.463 10.8503C107.463 11.6102 107.219 12.6688 106.92 13.293C106.649 13.8901 106.187 14.6501 105.916 14.9486C105.645 15.2743 104.993 15.7629 104.477 16.0343C103.69 16.4414 102.713 16.5228 94.4351 16.6857L93.8923 17.4185C93.4037 18.0699 93.3223 18.5856 93.3494 24.2853L89.1425 24.1496V20.0784C89.1696 16.6043 89.2511 15.8443 89.6853 14.9486C89.9839 14.3515 90.6353 13.5644 91.151 13.1844C92.0466 12.5059 92.2095 12.4788 97.2035 12.3431C101.356 12.2345 102.388 12.1259 102.578 11.8002C102.713 11.5831 102.849 10.986 102.849 10.4974C102.849 9.90032 102.659 9.49319 102.252 9.22178C101.736 8.86894 100.352 8.81465 86.2926 8.81465Z" fill="black"/>
    <path d="M111.589 7.10474C112.131 6.29049 112.864 5.61196 113.57 5.28626C114.547 4.79771 115.307 4.74343 128.905 4.74343V8.81465H122.527C116.501 8.81465 116.121 8.8418 115.605 9.35748C115.307 9.65604 115.063 10.2532 115.063 10.7146C115.063 11.2574 115.271 11.6645 115.687 11.9359C116.148 12.2616 117.261 12.3431 121.034 12.3431C124.996 12.3431 125.974 12.4245 126.869 12.8316C127.466 13.103 128.199 13.673 128.525 14.1344C128.851 14.5687 129.231 15.3558 129.421 15.8715C129.583 16.3871 129.719 17.4185 129.719 18.1785C129.719 18.9113 129.556 20.0241 129.366 20.6212C129.203 21.2183 128.606 22.1411 128.091 22.684C127.412 23.3625 126.734 23.7425 125.729 23.9596C124.725 24.1768 120.165 24.2853 97.4207 24.2853V19.9427H110.801C118.13 19.9427 124.291 19.8341 124.481 19.7255C124.644 19.617 124.915 19.237 125.051 18.857C125.241 18.3685 125.241 17.9885 124.671 16.8214L119.677 16.6857C116.013 16.55 114.411 16.4143 113.706 16.1157C113.19 15.8715 112.376 15.2743 111.914 14.7586C111.399 14.1887 110.964 13.2659 110.72 12.3431C110.53 11.5017 110.449 10.3346 110.557 9.6289C110.639 8.92322 111.1 7.83756 111.589 7.10474Z" fill="black"/>
    <path d="M54.4286 10.0631C54.9986 9.46604 55.9485 8.76036 56.5456 8.48894C57.1427 8.24467 58.1198 8.00039 59.8026 7.97325L59.0426 8.67893C58.6355 9.05891 58.2013 9.65603 58.0384 10.036C57.8756 10.416 57.767 11.1217 57.767 11.6102C57.767 12.0716 58.0113 12.8859 58.3098 13.3744C58.6084 13.8358 59.2055 14.4329 59.6669 14.6501C60.1283 14.8672 60.9154 15.0572 61.4311 15.0572C61.9468 15.0572 62.7339 14.8672 63.1953 14.6501C63.6296 14.4329 64.2267 13.863 64.471 13.4287C64.7424 12.9673 65.0409 12.6145 65.1495 12.6145C65.2852 12.6145 65.3666 13.0216 65.3938 13.5101C65.4209 13.9715 65.3938 14.7315 65.3666 15.1929C65.3395 15.6543 65.1223 16.4957 64.8509 17.0657C64.6067 17.6628 63.9281 18.5856 63.3039 19.1013C62.7068 19.6441 61.6211 20.2412 60.8611 20.4584C60.1012 20.6755 59.0155 20.7841 58.3098 20.7026C57.6313 20.6212 56.6813 20.3498 56.2199 20.1055C55.7314 19.8612 54.89 19.2098 54.3743 18.667C53.8315 18.097 53.2344 17.0928 53.0172 16.4143C52.773 15.7357 52.6101 14.8401 52.6101 14.3787C52.6101 13.9172 52.773 13.0216 53.0172 12.343C53.2344 11.6645 53.8586 10.6331 54.4286 10.0631Z" fill="#6C2126"/>
    <path d="M58.0383 10.036C58.2012 9.65602 58.6354 9.03176 59.0426 8.65178C59.6397 8.10895 59.9654 8.00039 60.6168 8.13609C61.051 8.21752 61.4853 8.35323 61.5667 8.40751C61.6481 8.48893 61.3767 8.84177 60.9696 9.22176C60.4811 9.65602 60.2096 10.1717 60.2096 10.6331C60.2096 11.0674 60.3996 11.6645 60.6168 11.9902C60.9153 12.4516 61.2953 12.6144 62.0553 12.6144C62.6252 12.6144 63.2766 12.3973 63.5481 12.1259C63.8195 11.8816 64.0366 11.5016 64.0095 11.3117C64.0095 11.1488 64.1452 10.986 64.2809 10.986C64.4437 10.986 64.688 11.2574 64.8508 11.5831C65.1223 12.0988 65.068 12.3973 64.5794 13.2116C64.2809 13.7815 63.6295 14.4329 63.1952 14.6501C62.7609 14.8672 61.9467 15.0572 61.431 15.0572C60.9153 15.0572 60.1282 14.8672 59.6668 14.6501C59.2325 14.4329 58.6083 13.8358 58.3097 13.3473C58.0112 12.8859 57.7669 12.0716 57.7669 11.5831C57.7669 11.1217 57.9026 10.416 58.0383 10.036Z" fill="#CC0C20"/>
</svg>