<svg width="20" height="23" viewBox="0 0 20 23" fill="none" xmlns="http://www.w3.org/2000/svg">
<path d="M10 2.33493C15.523 2.33493 20 6.81193 20 12.3349C20 17.8579 15.523 22.3349 10 22.3349C4.477 22.3349 0 17.8579 0 12.3349C0 6.81193 4.477 2.33493 10 2.33493ZM10 4.33493C7.87827 4.33493 5.84344 5.17779 4.34315 6.67808C2.84285 8.17837 2 10.2132 2 12.3349C2 14.4567 2.84285 16.4915 4.34315 17.9918C5.84344 19.4921 7.87827 20.3349 10 20.3349C12.1217 20.3349 14.1566 19.4921 15.6569 17.9918C17.1571 16.4915 18 14.4567 18 12.3349C18 10.2132 17.1571 8.17837 15.6569 6.67808C14.1566 5.17779 12.1217 4.33493 10 4.33493ZM10 16.3349C10.2652 16.3349 10.5196 16.4403 10.7071 16.6278C10.8946 16.8154 11 17.0697 11 17.3349C11 17.6001 10.8946 17.8545 10.7071 18.042C10.5196 18.2296 10.2652 18.3349 10 18.3349C9.73478 18.3349 9.48043 18.2296 9.29289 18.042C9.10536 17.8545 9 17.6001 9 17.3349C9 17.0697 9.10536 16.8154 9.29289 16.6278C9.48043 16.4403 9.73478 16.3349 10 16.3349ZM10 6.83493C10.8423 6.83496 11.6583 7.12828 12.3078 7.66453C12.9573 8.20078 13.3998 8.94647 13.5593 9.77351C13.7188 10.6005 13.5853 11.4573 13.1818 12.1966C12.7783 12.936 12.1299 13.5117 11.348 13.8249C11.2322 13.8675 11.1278 13.9363 11.043 14.0259C10.999 14.0759 10.992 14.1399 10.993 14.2059L11 14.3349C10.9997 14.5898 10.9021 14.835 10.7272 15.0203C10.5522 15.2056 10.313 15.3172 10.0586 15.3321C9.80416 15.347 9.55362 15.2643 9.35817 15.1007C9.16271 14.9371 9.0371 14.705 9.007 14.4519L9 14.3349V14.0849C9 12.9319 9.93 12.2399 10.604 11.9689C10.8783 11.8594 11.1176 11.6772 11.2962 11.4419C11.4748 11.2066 11.5859 10.9272 11.6176 10.6335C11.6493 10.3398 11.6004 10.0431 11.4762 9.77507C11.352 9.50708 11.1571 9.278 10.9125 9.11241C10.6679 8.94682 10.3829 8.85099 10.0879 8.8352C9.79295 8.81941 9.49927 8.88427 9.23839 9.0228C8.97752 9.16133 8.75931 9.36831 8.60719 9.62151C8.45508 9.87471 8.37481 10.1646 8.375 10.4599C8.375 10.7251 8.26964 10.9795 8.08211 11.167C7.89457 11.3546 7.64022 11.4599 7.375 11.4599C7.10978 11.4599 6.85543 11.3546 6.66789 11.167C6.48036 10.9795 6.375 10.7251 6.375 10.4599C6.375 9.49852 6.75692 8.57649 7.43674 7.89667C8.11656 7.21685 9.03859 6.83493 10 6.83493Z" fill="#CC0C20"/>
</svg>
