<svg width="17" height="17" viewBox="0 0 17 17" fill="none" xmlns="http://www.w3.org/2000/svg">
<path d="M13.8 6.953L15.727 7.268C15.8033 7.28057 15.8727 7.31986 15.9227 7.37884C15.9727 7.43783 16.0001 7.51267 16 7.59V9.383C16 9.45972 15.9729 9.53398 15.9235 9.59269C15.8741 9.65141 15.8056 9.69082 15.73 9.704L13.8 10.043C13.6887 10.431 13.5357 10.8013 13.341 11.154L14.482 12.738C14.5275 12.8009 14.5491 12.8779 14.5428 12.9553C14.5366 13.0326 14.503 13.1052 14.448 13.16L13.18 14.428C13.1258 14.4824 13.0542 14.5159 12.9777 14.5227C12.9013 14.5295 12.8249 14.509 12.762 14.465L11.162 13.342C10.8077 13.5387 10.4328 13.6957 10.044 13.81L9.704 15.731C9.69058 15.8066 9.65093 15.875 9.59203 15.9242C9.53312 15.9734 9.45875 16.0002 9.382 16H7.59C7.51293 16.0001 7.43834 15.9728 7.37955 15.923C7.32075 15.8731 7.28157 15.804 7.269 15.728L6.95 13.817C6.55964 13.704 6.183 13.548 5.827 13.352L4.239 14.465C4.17612 14.509 4.09972 14.5295 4.02326 14.5227C3.94679 14.5159 3.87517 14.4824 3.821 14.428L2.552 13.16C2.49811 13.1051 2.46511 13.033 2.45872 12.9563C2.45233 12.8796 2.47294 12.8031 2.517 12.74L3.64 11.17C3.44185 10.8123 3.28421 10.4336 3.17 10.041L1.269 9.704C1.1936 9.69061 1.12532 9.6511 1.07614 9.59241C1.02695 9.53372 0.999995 9.45958 1 9.383V7.59C1 7.43 1.115 7.294 1.273 7.268L3.174 6.951C3.28933 6.55767 3.446 6.18167 3.644 5.823L2.534 4.237C2.49023 4.17421 2.46996 4.09802 2.47672 4.02178C2.48349 3.94554 2.51686 3.87411 2.571 3.82L3.84 2.553C3.89454 2.4984 3.96668 2.46491 4.04358 2.4585C4.12049 2.45209 4.19718 2.47318 4.26 2.518L5.835 3.643C6.19033 3.44833 6.564 3.295 6.956 3.183L7.268 1.273C7.28057 1.1967 7.31986 1.12735 7.37884 1.07734C7.43783 1.02733 7.51267 0.99992 7.59 1H9.383C9.542 1 9.677 1.114 9.705 1.27L10.041 3.19C10.431 3.30267 10.8043 3.45767 11.161 3.655L12.739 2.52C12.8018 2.47438 12.8787 2.45265 12.9561 2.45869C13.0334 2.46474 13.1061 2.49818 13.161 2.553L14.429 3.821C14.4832 3.87529 14.5166 3.94698 14.5232 4.02344C14.5298 4.0999 14.5092 4.17623 14.465 4.239L13.34 5.842C13.5333 6.19533 13.6867 6.56533 13.8 6.952V6.953ZM6.216 8.5C6.216 9.10549 6.45653 9.68618 6.88468 10.1143C7.31282 10.5425 7.89351 10.783 8.499 10.783C9.10449 10.783 9.68518 10.5425 10.1133 10.1143C10.5415 9.68618 10.782 9.10549 10.782 8.5C10.782 7.89451 10.5415 7.31382 10.1133 6.88568C9.68518 6.45753 9.10449 6.217 8.499 6.217C7.89351 6.217 7.31282 6.45753 6.88468 6.88568C6.45653 7.31382 6.216 7.89451 6.216 8.5Z" stroke="#CC0C20" stroke-width="1.5"/>
</svg>
